# xmcd
#
# Track frame offsets:
#	150
#	23504
#	45320
#	60295
#	77336
#	93657
#	117589
#	135623
#	153854
#	169860
#	186741
#	206155
#	224967
#	234521
#	256041
#
# Disc length: 3671 seconds
#
# Revision: 1
# Processed by: cddbd v1.5.2PL0 Copyright (c) Steve Scherf et al.
# Submitted via: audiograbber 1.83.01
#
DISCID=cc0e550f
DTITLE=Esinchill and King Beef - Choice Cuts Volume One
DYEAR=2005
DGENRE=Rap
TTITLE0=If You Want It
TTITLE1=F/U
TTITLE2=Alright
TTITLE3=Put Me Down
TTITLE4=Mojo
TTITLE5=Hip Hop
TTITLE6=Stay The Night
TTITLE7=This Is Life
TTITLE8=Wing Man
TTITLE9=Burn
TTITLE10=Hate To See You Go
TTITLE11=Groove
TTITLE12=Dashin'
TTITLE13=Get Mo'
TTITLE14=Movin'
EXTD=www.RapMusicGuide.com
EXTT0=
EXTT1=
EXTT2=
EXTT3=
EXTT4=
EXTT5=
EXTT6=
EXTT7=
EXTT8=
EXTT9=
EXTT10=
EXTT11=
EXTT12=
EXTT13=
EXTT14=
PLAYORDER=
